<?xml version="1.0" encoding="UTF-8" standalone="no"?>
<!-- Created with Inkscape (http://www.inkscape.org/) -->

<svg
   xmlns:dc="http://purl.org/dc/elements/1.1/"
   xmlns:cc="http://creativecommons.org/ns#"
   xmlns:rdf="http://www.w3.org/1999/02/22-rdf-syntax-ns#"
   xmlns:svg="http://www.w3.org/2000/svg"
   xmlns="http://www.w3.org/2000/svg"
   xmlns:sodipodi="http://sodipodi.sourceforge.net/DTD/sodipodi-0.dtd"
   xmlns:inkscape="http://www.inkscape.org/namespaces/inkscape"
   width="16px"
   height="16px"
   viewBox="0 0 0 0"
   version="1.1"
   id="svg833"
   inkscape:version="0.92.2 2405546, 2018-03-11"
   sodipodi:docname="svn.svg">
  <defs
     id="defs827" />
  <sodipodi:namedview
     id="base"
     pagecolor="#000"
     bordercolor="#666666"
     borderopacity="1.0"
     inkscape:pageopacity="0.0"
     inkscape:pageshadow="2"
     inkscape:zoom="7.9195959"
     inkscape:cx="45.244004"
     inkscape:cy="-15.933905"
     inkscape:document-units="px"
     inkscape:current-layer="layer1"
     showgrid="false"
     inkscape:window-width="1918"
     inkscape:window-height="1026"
     inkscape:window-x="0"
     inkscape:window-y="26"
     inkscape:window-maximized="1" />
  <metadata
     id="metadata830">
    <rdf:RDF>
      <cc:Work
         rdf:about="">
        <dc:format>image/svg+xml</dc:format>
        <dc:type
           rdf:resource="http://purl.org/dc/dcmitype/StillImage" />
        <dc:title />
      </cc:Work>
    </rdf:RDF>
  </metadata>
  <g
     inkscape:label="Layer 1"
     inkscape:groupmode="layer"
     id="layer1"
     transform="translate(-11.490486,-97.227182)">
    <path
       inkscape:connector-curvature="0"
       d="m 11.869293,97.554682 v 5.554758 c 2.07398,-1.19183 4.845137,-2.38958 8.332476,-3.598233 2.234573,-0.77328 4.394218,-1.423497 6.480214,-1.956525 z m 15.345011,1.184405 c -2.022236,0.414751 -3.835795,0.902867 -5.431862,1.454273 -1.827193,0.6334 -3.298161,1.27372 -4.410675,1.92658 -1.113936,0.64116 -1.631406,1.15972 -1.558942,1.55921 0.06536,0.3527 0.531867,0.51291 1.401419,0.47978 0.447565,-0.0109 1.172226,-0.0797 2.178174,-0.20226 1.00596,-0.12288 2.304728,-0.30013 3.894644,-0.53223 1.575939,-0.22474 2.881243,-0.37644 3.927242,-0.46477 z m -4.492157,7.046553 c -0.447558,0.007 -1.063692,0.0551 -1.852254,0.13484 -0.791411,0.0819 -1.770468,0.19973 -2.944075,0.3673 -1.821512,0.26896 -3.337591,0.47829 -4.541037,0.61469 -0.577279,0.0671 -1.078804,0.10911 -1.515488,0.14245 v 4.50528 c 2.390168,-0.48218 4.552358,-1.05707 6.480211,-1.72414 1.893975,-0.65482 3.349643,-1.29381 4.372643,-1.91158 1.024428,-0.61778 1.502718,-1.14189 1.423153,-1.56671 -0.06677,-0.36639 -0.546493,-0.55249 -1.423153,-0.56224 z m 4.492157,1.58171 c -2.100332,1.13551 -4.707213,2.24912 -7.821886,3.32837 -2.899841,1.00342 -5.404738,1.72138 -7.523125,2.16644 v 0.0377 h 15.345011 z m -14.704055,0.94455 c 0.008,-0.002 0.01378,-1.1e-4 0.02175,0 0.03966,0.002 0.08196,0.0181 0.108636,0.0598 0.04074,0.058 0.05133,0.15079 0.02719,0.22474 -0.0261,0.0855 -0.09599,0.13702 -0.162972,0.11998 -0.07391,-0.0145 -0.131254,-0.11491 -0.124947,-0.21749 0.0022,-0.0964 0.06137,-0.17544 0.130385,-0.1874 z m 0.543188,0 c 0.0348,0.002 0.06684,0.0109 0.09236,0.045 0.04814,0.0547 0.0671,0.1526 0.04346,0.23235 -0.02211,0.0819 -0.08283,0.14246 -0.14666,0.13484 -0.05484,-0.003 -0.10878,-0.0504 -0.130348,-0.11998 -0.02972,-0.0906 -0.0054,-0.21314 0.05974,-0.26243 0.02429,-0.0217 0.05289,-0.029 0.08149,-0.029 z m -0.521461,1.32683 c 0.0647,-0.003 0.122519,0.0602 0.141223,0.14245 0.01994,0.0917 -0.0116,0.20698 -0.07605,0.24721 -0.06463,0.045 -0.149523,0.0181 -0.190121,-0.0674 -0.04132,-0.0819 -0.03552,-0.20552 0.02175,-0.27005 0.02791,-0.0362 0.06546,-0.0536 0.103198,-0.0526 z m 0.521461,0 c 0.05147,-0.004 0.09722,0.041 0.124947,0.0975 0.03995,0.0859 0.0232,0.20988 -0.03802,0.27005 -0.06144,0.0645 -0.157498,0.0536 -0.206396,-0.029 -0.05057,-0.083 -0.04723,-0.22473 0.01631,-0.29252 0.02755,-0.0326 0.0672,-0.0464 0.103199,-0.045 z"
       id="polygon3517"
       style="font-style:normal;font-variant:normal;font-weight:normal;font-stretch:normal;letter-spacing:normal;word-spacing:normal;text-anchor:start;opacity:1;fill:#ffffff;fill-opacity:1;fill-rule:nonzero;stroke:none;stroke-width:0;stroke-linecap:butt;stroke-linejoin:miter;stroke-miterlimit:10.43299961;stroke-dasharray:none;stroke-dashoffset:0;stroke-opacity:1" />
  </g>
</svg>
